<?xml version="1.0" encoding="UTF-8" standalone="no"?>
<svg width="678px" height="655px" viewBox="0 0 678 655" version="1.1" xmlns="http://www.w3.org/2000/svg" xmlns:xlink="http://www.w3.org/1999/xlink">

    <g id="Page-1" stroke="none" stroke-width="1" fill="none" fill-rule="evenodd">
        <g id="mm-type" fill="#ffffff">
            <path d="M628.3477,653.2011 C596.5977,653.2011 581.7247,640.7521 581.1067,640.2221 L583.8397,637.0381 C583.8697,637.0651 587.4417,640.0601 594.6757,643.0171 C601.3597,645.7491 612.6277,649.0061 628.3477,649.0061 C642.6147,649.0061 654.4417,646.6481 662.5497,642.1871 C669.3997,638.4181 673.1727,633.3201 673.1727,627.8321 C673.1727,622.5101 670.3417,618.8791 663.7067,615.6911 C656.9667,612.4521 646.1027,609.7051 628.4827,606.7831 C594.5337,601.1521 580.3427,596.3901 580.3427,581.4671 C580.3427,574.2141 585.4447,567.6241 594.7067,562.9111 C603.5677,558.4031 615.6847,555.9201 628.8257,555.9201 C655.7077,555.9201 675.4677,567.8471 676.2957,568.3551 L674.1037,571.9321 C673.9107,571.8141 654.4767,560.1151 628.8257,560.1151 C603.9917,560.1151 584.5377,569.4941 584.5377,581.4671 C584.5377,592.2811 594.1317,596.8331 629.1687,602.6441 C661.1357,607.9461 677.3677,613.2971 677.3677,627.8321 C677.3677,634.9191 672.8237,641.3231 664.5717,645.8621 C655.8467,650.6631 643.3197,653.2011 628.3477,653.2011" id="Fill-28"></path>
            <polygon id="Fill-26" points="479.1246 556.0837 479.1246 647.3177 390.5686 556.0837 386.3736 556.0837 386.3736 653.0377 390.5686 653.0377 390.5686 561.8037 479.1246 653.0377 483.3196 653.0377 483.3196 556.0837"></polygon>
            <polygon id="Fill-23" points="240.432 653.037 244.611 653.037 244.611 556.083 240.432 556.083"></polygon>
            <path d="M21.5716,627.4202 L52.7576,562.2362 L83.9356,627.4202 L21.5716,627.4202 Z M97.0336,654.8052 L101.2286,654.8052 L54.8556,557.8512 C54.8556,557.8512 53.2996,555.0492 53.1306,554.7502 C52.9586,554.4452 52.8316,554.3162 52.7576,554.3162 C52.6836,554.3162 52.5676,554.4522 52.3996,554.7502 C52.2326,555.0492 50.6596,557.8512 50.6596,557.8512 L4.2746,654.8052 L8.4696,654.8052 L19.5646,631.6152 L85.9416,631.6152 L97.0336,654.8052 Z" id="Fill-20"></path>
            <polygon id="Fill-25" points="677.3321 370.7226 580.3781 370.7226 580.3781 374.9176 626.7651 374.9176 626.7651 467.6766 630.9151 467.6766 630.9151 374.9176 677.3321 374.9176"></polygon>
            <polygon id="Fill-18" points="479.1246 370.7226 479.1246 461.9556 390.5686 370.7226 386.3736 370.7226 386.3736 467.6766 390.5686 467.6766 390.5686 376.4426 479.1246 467.6766 483.3196 467.6766 483.3196 370.7226"></polygon>
            <path d="M286.525,374.5662 L286.525,424.9472 C286.525,449.7392 265.471,467.0552 242.512,467.0552 C219.554,467.0552 198.5,449.0682 198.5,424.9472 L198.5,374.5662 L194.036,374.5662 L194.036,425.1402 C194.036,451.7082 217.225,471.5202 242.512,471.5202 C267.8,471.5202 290.989,452.4472 290.989,425.1402 L290.989,374.5662 L286.525,374.5662 Z" id="Fill-6"></path>
            <path d="M48.5168,467.2849 C25.4938,467.2849 4.2748,446.1389 4.2748,423.0429 C4.2748,399.9479 25.4208,378.8009 48.5168,378.8009 C71.6128,378.8009 92.7588,400.0199 92.7588,423.0429 C92.7588,446.0659 71.5398,467.2849 48.5168,467.2849 M48.5168,374.5259 C23.1898,374.5259 -0.0002,397.7159 -0.0002,423.0429 C-0.0002,448.3699 23.2698,471.5599 48.5168,471.5599 C73.7638,471.5599 97.0338,448.2899 97.0338,423.0429 C97.0338,397.7959 73.8438,374.5259 48.5168,374.5259" id="Fill-3"></path>
            <path d="M673.137,185.3615 L628.861,233.6685 L584.573,185.3615 L580.378,185.3615 L580.378,282.3155 L584.573,282.3155 L584.573,191.8015 L626.763,237.8215 C626.763,237.8215 628.385,239.5365 628.536,239.6955 C628.688,239.8545 628.774,239.8985 628.854,239.8985 C628.934,239.8985 629.018,239.8575 629.173,239.6945 C629.327,239.5315 630.944,237.8215 630.944,237.8215 L630.959,237.8215 L673.137,191.8035 L673.137,282.3155 L677.332,282.3155 L677.332,185.3615 L673.137,185.3615 Z" id="Fill-8"></path>
            <path d="M409.1259,278.1641 C402.1209,278.1641 390.5689,278.0761 390.5689,278.0761 L390.5689,189.5131 C390.5689,189.5131 395.0769,189.6001 409.1259,189.6001 C455.9429,189.6001 479.1319,199.7021 479.1319,233.7941 C479.1319,267.8871 455.8259,278.1641 409.1259,278.1641 L409.1259,278.1641 Z M409.1259,185.4051 C395.0769,185.4051 386.3739,185.3171 386.3739,185.3171 L386.3739,282.2711 C386.3739,282.2711 402.1209,282.3591 409.1259,282.3591 C451.2819,282.3591 483.3279,275.3221 483.3279,233.7941 C483.3279,192.2671 451.2819,185.4051 409.1259,185.4051 L409.1259,185.4051 Z" id="Fill-1"></path>
            <polygon id="Fill-14" points="286.7904 191.2803 286.7904 282.5133 198.2344 191.2803 194.0394 191.2803 194.0394 288.2343 198.2344 288.2343 198.2344 197.0003 286.7904 288.2343 290.9854 288.2343 290.9854 191.2803"></polygon>
            <path d="M17.3186,262.6168 L48.5046,197.4328 L79.6826,262.6168 L17.3186,262.6168 Z M92.7806,290.0018 L96.9756,290.0018 L50.6026,193.0478 C50.6026,193.0478 49.0466,190.2458 48.8776,189.9468 C48.7056,189.6418 48.5786,189.5128 48.5046,189.5128 C48.4306,189.5128 48.3146,189.6488 48.1466,189.9468 C47.9796,190.2458 46.4066,193.0478 46.4066,193.0478 L0.0216,290.0018 L4.2166,290.0018 L15.3116,266.8118 L81.6886,266.8118 L92.7806,290.0018 Z" id="Fill-12"></path>
            <polygon id="Fill-16" points="677.3127 4.1964 677.3127 0.0014 584.5537 0.0014 580.3587 0.0014 580.3587 4.1964 580.3587 92.7584 580.3587 96.9534 584.5537 96.9534 677.3127 96.9534 677.3127 92.7584 584.5537 92.7584 584.5537 50.5754 654.1227 50.5754 654.1227 46.3804 584.5537 46.3804 584.5537 4.1964"></polygon>
            <path d="M479.1129,0.0004 L434.8369,48.3074 L390.5489,0.0004 L386.3539,0.0004 L386.3539,96.9544 L390.5489,96.9544 L390.5489,6.4404 L432.7389,52.4604 C432.7389,52.4604 434.3609,54.1754 434.5119,54.3344 C434.6639,54.4934 434.7499,54.5374 434.8299,54.5374 C434.9099,54.5374 434.9939,54.4964 435.1489,54.3334 C435.3029,54.1704 436.9199,52.4604 436.9199,52.4604 L436.9349,52.4604 L479.1129,6.4424 L479.1129,96.9544 L483.3079,96.9544 L483.3079,0.0004 L479.1129,0.0004 Z" id="Fill-10"></path>
            <polygon id="Fill-27" points="10.914 49.752 290.979 49.752 290.979 45.557 10.914 45.557"></polygon>
        </g>
    </g>
</svg>